<?xml version="1.0" encoding="utf-8"?>
<!-- Generator: Adobe Illustrator 24.1.2, SVG Export Plug-In . SVG Version: 6.00 Build 0)  -->
<svg version="1.1" id="Layer_1" xmlns="http://www.w3.org/2000/svg" xmlns:xlink="http://www.w3.org/1999/xlink" x="0px" y="0px"
	 viewBox="0 0 211 46" style="enable-background:new 0 0 211 46;" xml:space="preserve">
<style type="text/css">
	.st0{fill-rule:evenodd;clip-rule:evenodd;fill:#9C968C;}
	.st1{fill-rule:evenodd;clip-rule:evenodd;fill:#FBEFDB;}
</style>
<path class="st0" d="M195.47,37.53l-3.6,8.16h-1.38l1.45-3.29l-2.23-4.87h1.49l1.45,3.59l1.43-3.59H195.47z M187.63,33.69h1.31v9.36
	h-1.31V33.69z M185.2,36.13c-0.22,0-0.41-0.08-0.57-0.23c-0.16-0.16-0.25-0.34-0.25-0.56c0-0.22,0.08-0.41,0.25-0.56
	c0.16-0.15,0.35-0.23,0.57-0.23c0.23,0,0.43,0.08,0.59,0.23c0.16,0.15,0.24,0.34,0.24,0.56c0,0.22-0.08,0.4-0.24,0.56
	C185.62,36.05,185.43,36.13,185.2,36.13z M181.48,39.69c0-0.42-0.07-0.73-0.22-0.93c-0.15-0.2-0.38-0.31-0.69-0.31
	c-0.22,0-0.42,0.05-0.58,0.14c-0.16,0.1-0.29,0.24-0.38,0.42c-0.09,0.18-0.14,0.41-0.14,0.67v3.36h-1.3v-3.36
	c0-0.42-0.07-0.73-0.22-0.93c-0.15-0.2-0.38-0.31-0.7-0.31c-0.22,0-0.41,0.05-0.57,0.14c-0.16,0.1-0.29,0.24-0.38,0.42
	c-0.09,0.18-0.14,0.41-0.14,0.67v3.36h-1.27v-5.52h1.27v0.8c0.17-0.3,0.38-0.53,0.64-0.69c0.26-0.16,0.56-0.23,0.92-0.23
	c0.4,0,0.73,0.08,1,0.25c0.27,0.17,0.46,0.41,0.58,0.73c0.2-0.33,0.45-0.57,0.74-0.74c0.29-0.16,0.62-0.25,0.99-0.25
	c0.4,0,0.73,0.08,0.98,0.25c0.26,0.16,0.45,0.41,0.58,0.73c0.13,0.32,0.2,0.7,0.2,1.15v3.52h-1.31V39.69z M172.09,42.3
	c-0.03,0.06-0.07,0.11-0.11,0.16c-0.2,0.24-0.46,0.42-0.77,0.53c-0.31,0.12-0.62,0.17-0.94,0.17c-0.34,0-0.66-0.07-0.96-0.2
	c-0.3-0.14-0.53-0.34-0.71-0.6c-0.18-0.26-0.26-0.58-0.26-0.96c0-0.54,0.19-0.96,0.56-1.28c0.38-0.32,0.91-0.47,1.6-0.47
	c0.37,0,0.69,0.04,0.95,0.12c0.26,0.08,0.47,0.17,0.64,0.27v-0.68c0-0.18-0.03-0.32-0.08-0.43c-0.06-0.11-0.14-0.2-0.25-0.28
	c-0.11-0.07-0.23-0.12-0.38-0.16c-0.14-0.03-0.3-0.05-0.47-0.05c-0.26,0-0.5,0.03-0.73,0.09c-0.23,0.06-0.42,0.13-0.58,0.22
	c-0.16,0.08-0.28,0.15-0.37,0.21l-0.53-0.91c0.26-0.15,0.58-0.3,0.97-0.44c0.39-0.14,0.85-0.22,1.37-0.22c0.45,0,0.85,0.07,1.2,0.2
	c0.35,0.13,0.63,0.33,0.82,0.58c0.2,0.26,0.29,0.57,0.29,0.94v3.94h-1.27V42.3z M172.09,40.78c-0.13-0.06-0.26-0.11-0.4-0.15
	c-0.28-0.08-0.58-0.12-0.89-0.12c-0.27,0-0.49,0.03-0.66,0.1c-0.17,0.07-0.29,0.16-0.38,0.28c-0.08,0.12-0.13,0.27-0.13,0.44
	c0,0.18,0.04,0.34,0.13,0.47c0.09,0.13,0.21,0.23,0.37,0.29c0.16,0.06,0.33,0.1,0.53,0.1c0.26,0,0.5-0.05,0.71-0.16
	c0.21-0.11,0.38-0.26,0.51-0.46c0.13-0.2,0.19-0.44,0.19-0.72V40.78z M164.44,38.03h3.12v1.24h-3.12v3.79h-1.39v-8.4h0.88h0.52h3.24
	v1.27h-3.24V38.03z M158.08,40.59h-4.29c0.02,0.25,0.07,0.47,0.16,0.66c0.12,0.28,0.3,0.49,0.53,0.64c0.23,0.14,0.52,0.22,0.85,0.22
	c0.36,0,0.67-0.07,0.94-0.22c0.26-0.14,0.48-0.36,0.65-0.66l1.13,0.44c-0.3,0.5-0.67,0.87-1.13,1.12c-0.46,0.25-1,0.38-1.64,0.38
	c-0.56,0-1.05-0.12-1.48-0.36c-0.43-0.24-0.76-0.58-0.99-1.01c-0.23-0.43-0.35-0.94-0.35-1.51c0-0.58,0.12-1.09,0.35-1.52
	c0.24-0.43,0.57-0.77,1-1c0.43-0.24,0.94-0.35,1.52-0.35c0.58,0,1.08,0.11,1.49,0.34c0.41,0.22,0.73,0.55,0.94,0.97
	c0.22,0.42,0.32,0.93,0.32,1.52c0,0.06,0,0.13-0.01,0.2C158.08,40.51,158.08,40.56,158.08,40.59z M156.51,39.08
	c-0.12-0.22-0.28-0.38-0.48-0.5s-0.44-0.18-0.71-0.18c-0.33,0-0.61,0.07-0.83,0.22c-0.23,0.14-0.4,0.35-0.53,0.62
	c-0.06,0.14-0.11,0.29-0.14,0.46h2.86C156.66,39.46,156.61,39.26,156.51,39.08z M149.92,33.69h1.31v9.36h-1.31V33.69z M147.23,42.81
	c-0.45,0.24-0.96,0.37-1.52,0.37c-0.56,0-1.07-0.12-1.52-0.37c-0.45-0.24-0.81-0.58-1.07-1.02c-0.26-0.44-0.39-0.93-0.39-1.49
	c0-0.57,0.13-1.07,0.39-1.5c0.26-0.43,0.62-0.77,1.07-1.01c0.45-0.24,0.96-0.37,1.52-0.37c0.57,0,1.08,0.12,1.52,0.37
	c0.45,0.24,0.8,0.58,1.06,1.01c0.26,0.43,0.39,0.93,0.39,1.5c0,0.56-0.13,1.06-0.39,1.49C148.03,42.22,147.68,42.56,147.23,42.81z
	 M147.13,39.38c-0.14-0.26-0.34-0.47-0.59-0.61c-0.25-0.14-0.53-0.22-0.84-0.22s-0.59,0.07-0.84,0.22
	c-0.25,0.14-0.44,0.35-0.59,0.61s-0.22,0.57-0.22,0.91c0,0.34,0.07,0.65,0.22,0.91c0.14,0.26,0.34,0.46,0.59,0.61
	c0.25,0.15,0.53,0.22,0.84,0.22s0.59-0.07,0.84-0.22c0.25-0.15,0.44-0.35,0.59-0.61c0.14-0.26,0.22-0.56,0.22-0.91
	C147.35,39.95,147.28,39.65,147.13,39.38z M140.19,39.69c0-0.41-0.08-0.72-0.25-0.92c-0.16-0.21-0.42-0.31-0.77-0.31
	c-0.25,0-0.46,0.05-0.65,0.16c-0.18,0.1-0.33,0.25-0.43,0.43c-0.1,0.18-0.15,0.4-0.15,0.65v3.36h-1.31v-9.36h1.31v4.67
	c0.15-0.28,0.35-0.51,0.59-0.68c0.29-0.2,0.65-0.31,1.06-0.31c0.42,0,0.76,0.08,1.04,0.24c0.28,0.16,0.49,0.4,0.64,0.71
	c0.14,0.32,0.22,0.71,0.22,1.18v3.54h-1.31V39.69z M129.69,37.56l-2.59,5.94l-3.43-8.84h1.64l2,5.62l2.38-6.04l2.42,6.04l1.96-5.62
	h1.66l-3.44,8.84L129.69,37.56z M119.53,40.59h-4.29c0.02,0.25,0.07,0.47,0.16,0.66c0.12,0.28,0.3,0.49,0.53,0.64
	c0.23,0.14,0.52,0.22,0.85,0.22c0.36,0,0.67-0.07,0.94-0.22s0.48-0.36,0.65-0.66l1.13,0.44c-0.3,0.5-0.67,0.87-1.13,1.12
	c-0.46,0.25-1,0.38-1.64,0.38c-0.56,0-1.05-0.12-1.48-0.36c-0.43-0.24-0.76-0.58-0.99-1.01c-0.23-0.43-0.35-0.94-0.35-1.51
	c0-0.58,0.12-1.09,0.35-1.52c0.24-0.43,0.57-0.77,1-1c0.43-0.24,0.94-0.35,1.52-0.35c0.58,0,1.08,0.11,1.49,0.34
	c0.41,0.22,0.73,0.55,0.94,0.97c0.22,0.42,0.32,0.93,0.32,1.52c0,0.06,0,0.13-0.01,0.2C119.53,40.51,119.53,40.56,119.53,40.59z
	 M117.97,39.08c-0.12-0.22-0.28-0.38-0.48-0.5c-0.2-0.12-0.44-0.18-0.71-0.18c-0.33,0-0.61,0.07-0.83,0.22
	c-0.23,0.14-0.4,0.35-0.53,0.62c-0.06,0.14-0.11,0.29-0.14,0.46h2.86C118.12,39.46,118.06,39.26,117.97,39.08z M111.36,39.69
	c0-0.41-0.08-0.72-0.25-0.92c-0.16-0.21-0.42-0.31-0.77-0.31c-0.25,0-0.46,0.05-0.65,0.16c-0.18,0.1-0.33,0.25-0.43,0.43
	c-0.1,0.18-0.15,0.4-0.15,0.65v3.36h-1.31v-9.36h1.31v4.67c0.15-0.28,0.35-0.51,0.59-0.68c0.29-0.2,0.65-0.31,1.06-0.31
	c0.42,0,0.76,0.08,1.04,0.24c0.28,0.16,0.49,0.4,0.64,0.71c0.14,0.32,0.22,0.71,0.22,1.18v3.54h-1.31V39.69z M106,43.05h-1.27v-4.38
	h-0.94v-1.14h0.94v-1.92H106v1.92h0.92v1.14H106V43.05z M99.1,38.7c-0.11-0.05-0.24-0.07-0.4-0.07c-0.22,0-0.39,0.06-0.53,0.17
	c-0.14,0.11-0.23,0.27-0.29,0.46c-0.06,0.2-0.09,0.43-0.09,0.69v3.11h-1.28v-5.52h1.28v0.67c0.13-0.19,0.28-0.36,0.45-0.5
	c0.26-0.2,0.53-0.31,0.81-0.31c0.2,0,0.39,0.03,0.56,0.1c0.18,0.06,0.33,0.17,0.46,0.32l-0.64,1.09
	C99.32,38.82,99.21,38.75,99.1,38.7z M93.82,42.81c-0.45,0.24-0.96,0.37-1.52,0.37c-0.56,0-1.07-0.12-1.52-0.37
	c-0.45-0.24-0.81-0.58-1.07-1.02c-0.26-0.44-0.39-0.93-0.39-1.49c0-0.57,0.13-1.07,0.39-1.5c0.26-0.43,0.62-0.77,1.07-1.01
	c0.45-0.24,0.96-0.37,1.52-0.37c0.57,0,1.08,0.12,1.52,0.37c0.45,0.24,0.8,0.58,1.06,1.01c0.26,0.43,0.39,0.93,0.39,1.5
	c0,0.56-0.13,1.06-0.39,1.49C94.62,42.22,94.26,42.56,93.82,42.81z M93.72,39.38c-0.14-0.26-0.34-0.47-0.59-0.61
	c-0.25-0.14-0.53-0.22-0.84-0.22c-0.31,0-0.59,0.07-0.84,0.22c-0.25,0.14-0.44,0.35-0.59,0.61c-0.14,0.26-0.22,0.57-0.22,0.91
	c0,0.34,0.07,0.65,0.22,0.91c0.14,0.26,0.34,0.46,0.59,0.61c0.25,0.15,0.53,0.22,0.84,0.22c0.31,0,0.59-0.07,0.84-0.22
	c0.25-0.15,0.44-0.35,0.59-0.61c0.14-0.26,0.22-0.56,0.22-0.91C93.94,39.95,93.87,39.65,93.72,39.38z M88.33,34.83
	c-0.1-0.04-0.2-0.06-0.3-0.06c-0.12,0-0.22,0.03-0.31,0.1c-0.08,0.06-0.15,0.17-0.2,0.31c-0.05,0.14-0.07,0.33-0.07,0.56v1.79h1.28
	v1.14h-1.28v4.38h-1.28v-4.38h-0.6v-1.14h0.6v-2.04c0-0.43,0.07-0.79,0.21-1.07c0.14-0.28,0.34-0.5,0.61-0.65
	c0.26-0.15,0.59-0.23,0.98-0.23c0.22,0,0.4,0.03,0.56,0.08c0.16,0.06,0.3,0.13,0.41,0.21c0.11,0.08,0.2,0.17,0.26,0.25l-0.6,1.01
	C88.53,34.96,88.44,34.87,88.33,34.83z M79.48,39.69c0-0.42-0.07-0.73-0.22-0.93c-0.15-0.2-0.38-0.31-0.69-0.31
	c-0.22,0-0.42,0.05-0.58,0.14c-0.16,0.1-0.29,0.24-0.38,0.42c-0.09,0.18-0.14,0.41-0.14,0.67v3.36h-1.3v-3.36
	c0-0.42-0.07-0.73-0.22-0.93c-0.15-0.2-0.38-0.31-0.7-0.31c-0.22,0-0.41,0.05-0.57,0.14c-0.16,0.1-0.29,0.24-0.38,0.42
	c-0.09,0.18-0.14,0.41-0.14,0.67v3.36h-1.27v-5.52h1.27v0.8c0.17-0.3,0.38-0.53,0.64-0.69c0.26-0.16,0.56-0.23,0.92-0.23
	c0.4,0,0.73,0.08,1,0.25c0.27,0.17,0.46,0.41,0.58,0.73c0.2-0.33,0.45-0.57,0.74-0.74c0.29-0.16,0.62-0.25,0.99-0.25
	c0.4,0,0.73,0.08,0.98,0.25c0.26,0.16,0.45,0.41,0.58,0.73c0.13,0.32,0.2,0.7,0.2,1.15v3.52h-1.31V39.69z M71.62,40.59h-4.29
	c0.02,0.25,0.07,0.47,0.16,0.66c0.12,0.28,0.3,0.49,0.53,0.64c0.23,0.14,0.52,0.22,0.85,0.22c0.36,0,0.67-0.07,0.94-0.22
	s0.48-0.36,0.65-0.66l1.13,0.44c-0.3,0.5-0.67,0.87-1.13,1.12c-0.46,0.25-1,0.38-1.64,0.38c-0.56,0-1.05-0.12-1.48-0.36
	c-0.43-0.24-0.76-0.58-0.99-1.01c-0.23-0.43-0.35-0.94-0.35-1.51c0-0.58,0.12-1.09,0.35-1.52c0.24-0.43,0.57-0.77,1-1
	c0.43-0.24,0.94-0.35,1.52-0.35c0.58,0,1.08,0.11,1.49,0.34c0.41,0.22,0.73,0.55,0.94,0.97c0.22,0.42,0.32,0.93,0.32,1.52
	c0,0.06,0,0.13-0.01,0.2C71.62,40.51,71.62,40.56,71.62,40.59z M70.05,39.08c-0.12-0.22-0.28-0.38-0.48-0.5
	c-0.2-0.12-0.44-0.18-0.71-0.18c-0.33,0-0.61,0.07-0.83,0.22c-0.23,0.14-0.4,0.35-0.53,0.62c-0.06,0.14-0.11,0.29-0.14,0.46h2.86
	C70.2,39.46,70.15,39.26,70.05,39.08z M64.6,43.05h-1.27v-4.38h-0.94v-1.14h0.94v-1.92h1.27v1.92h0.92v1.14H64.6V43.05z M59.71,39.5
	c0.18,0.08,0.38,0.16,0.61,0.25c0.31,0.12,0.6,0.25,0.85,0.4c0.26,0.14,0.46,0.32,0.61,0.53c0.15,0.21,0.23,0.48,0.23,0.82
	c0,0.52-0.18,0.94-0.53,1.25c-0.36,0.32-0.83,0.47-1.43,0.47c-0.38,0-0.73-0.06-1.04-0.17c-0.31-0.12-0.59-0.27-0.83-0.46
	c-0.24-0.19-0.44-0.39-0.6-0.59l0.76-0.77c0.18,0.2,0.36,0.37,0.54,0.5c0.18,0.14,0.36,0.24,0.54,0.31
	c0.18,0.07,0.37,0.11,0.55,0.11c0.23,0,0.41-0.05,0.55-0.16c0.13-0.1,0.2-0.25,0.2-0.43c0-0.16-0.05-0.3-0.16-0.41
	c-0.1-0.12-0.25-0.22-0.43-0.3c-0.18-0.08-0.4-0.17-0.65-0.26c-0.25-0.1-0.49-0.21-0.74-0.34c-0.24-0.13-0.44-0.31-0.6-0.52
	c-0.16-0.22-0.23-0.49-0.23-0.82c0-0.34,0.09-0.62,0.26-0.84c0.17-0.22,0.4-0.39,0.7-0.5c0.29-0.11,0.61-0.16,0.94-0.16
	c0.3,0,0.59,0.04,0.86,0.13c0.27,0.09,0.51,0.2,0.73,0.35c0.22,0.14,0.4,0.31,0.55,0.49l-0.72,0.77c-0.18-0.22-0.39-0.39-0.65-0.53
	c-0.26-0.14-0.52-0.2-0.79-0.2c-0.19,0-0.35,0.04-0.47,0.12c-0.12,0.08-0.18,0.2-0.18,0.35c0,0.13,0.05,0.24,0.16,0.34
	C59.38,39.33,59.53,39.42,59.71,39.5z M52.3,45.69l1.45-3.29l-2.23-4.87h1.49l1.45,3.59l1.43-3.59h1.39l-3.6,8.16H52.3z M49,39.5
	c0.18,0.08,0.38,0.16,0.61,0.25c0.31,0.12,0.6,0.25,0.85,0.4c0.26,0.14,0.46,0.32,0.61,0.53c0.15,0.21,0.23,0.48,0.23,0.82
	c0,0.52-0.18,0.94-0.53,1.25c-0.36,0.32-0.83,0.47-1.43,0.47c-0.38,0-0.73-0.06-1.04-0.17c-0.31-0.12-0.59-0.27-0.83-0.46
	c-0.24-0.19-0.44-0.39-0.6-0.59l0.76-0.77c0.18,0.2,0.36,0.37,0.54,0.5c0.18,0.14,0.36,0.24,0.54,0.31
	c0.18,0.07,0.37,0.11,0.55,0.11c0.23,0,0.41-0.05,0.55-0.16c0.13-0.1,0.2-0.25,0.2-0.43c0-0.16-0.05-0.3-0.16-0.41
	c-0.1-0.12-0.25-0.22-0.43-0.3c-0.18-0.08-0.4-0.17-0.65-0.26c-0.25-0.1-0.49-0.21-0.74-0.34c-0.24-0.13-0.44-0.31-0.6-0.52
	c-0.16-0.22-0.23-0.49-0.23-0.82c0-0.34,0.09-0.62,0.26-0.84c0.17-0.22,0.4-0.39,0.7-0.5c0.29-0.11,0.61-0.16,0.94-0.16
	c0.3,0,0.59,0.04,0.86,0.13c0.27,0.09,0.51,0.2,0.73,0.35c0.22,0.14,0.4,0.31,0.55,0.49l-0.72,0.77c-0.18-0.22-0.39-0.39-0.65-0.53
	c-0.26-0.14-0.52-0.2-0.79-0.2c-0.19,0-0.35,0.04-0.47,0.12c-0.12,0.08-0.18,0.2-0.18,0.35c0,0.13,0.05,0.24,0.16,0.34
	C48.68,39.33,48.82,39.42,49,39.5z M44.68,42.81c-0.45,0.24-0.96,0.37-1.52,0.37c-0.56,0-1.07-0.12-1.52-0.37
	c-0.45-0.24-0.81-0.58-1.07-1.02c-0.26-0.44-0.39-0.93-0.39-1.49c0-0.57,0.13-1.07,0.39-1.5c0.26-0.43,0.62-0.77,1.07-1.01
	c0.45-0.24,0.96-0.37,1.52-0.37c0.57,0,1.08,0.12,1.52,0.37c0.45,0.24,0.8,0.58,1.06,1.01c0.26,0.43,0.39,0.93,0.39,1.5
	c0,0.56-0.13,1.06-0.39,1.49C45.48,42.22,45.13,42.56,44.68,42.81z M44.58,39.38c-0.14-0.26-0.34-0.47-0.59-0.61
	c-0.25-0.14-0.53-0.22-0.84-0.22s-0.59,0.07-0.84,0.22c-0.25,0.14-0.44,0.35-0.59,0.61c-0.14,0.26-0.22,0.57-0.22,0.91
	c0,0.34,0.07,0.65,0.22,0.91c0.14,0.26,0.34,0.46,0.59,0.61c0.25,0.15,0.53,0.22,0.84,0.22s0.59-0.07,0.84-0.22
	c0.25-0.15,0.44-0.35,0.59-0.61c0.14-0.26,0.22-0.56,0.22-0.91C44.8,39.95,44.73,39.65,44.58,39.38z M37.31,43.17
	c-0.56,0-1.07-0.12-1.52-0.37c-0.45-0.24-0.81-0.58-1.07-1.02c-0.26-0.44-0.4-0.93-0.4-1.49c0-0.57,0.13-1.07,0.4-1.5
	s0.62-0.77,1.07-1.01c0.45-0.24,0.96-0.37,1.52-0.37c0.39,0,0.75,0.06,1.08,0.17c0.33,0.11,0.59,0.26,0.78,0.44v1.44
	c-0.09-0.18-0.23-0.35-0.41-0.49c-0.19-0.14-0.4-0.25-0.64-0.33c-0.24-0.08-0.49-0.12-0.74-0.12c-0.32,0-0.61,0.08-0.87,0.23
	c-0.26,0.15-0.47,0.36-0.62,0.62c-0.15,0.26-0.23,0.57-0.23,0.91c0,0.34,0.08,0.65,0.23,0.91c0.15,0.26,0.36,0.47,0.62,0.62
	c0.26,0.15,0.55,0.23,0.87,0.23c0.27,0,0.53-0.04,0.76-0.13c0.24-0.08,0.45-0.2,0.63-0.34c0.18-0.14,0.32-0.3,0.41-0.47v1.43
	c-0.19,0.19-0.45,0.34-0.78,0.46C38.06,43.12,37.7,43.17,37.31,43.17z M28.92,43.05h-0.88v-8.4h0.88h0.52h3.72v1.25h-3.72v2.04h3.48
	v1.22h-3.48v2.64h3.72v1.25h-3.72H28.92z M23.08,40.59h-4.29c0.02,0.25,0.07,0.47,0.16,0.66c0.12,0.28,0.3,0.49,0.53,0.64
	c0.23,0.14,0.52,0.22,0.85,0.22c0.36,0,0.67-0.07,0.94-0.22s0.48-0.36,0.65-0.66l1.13,0.44c-0.3,0.5-0.67,0.87-1.13,1.12
	c-0.46,0.25-1,0.38-1.64,0.38c-0.56,0-1.05-0.12-1.48-0.36c-0.43-0.24-0.76-0.58-0.99-1.01c-0.23-0.43-0.35-0.94-0.35-1.51
	c0-0.58,0.12-1.09,0.35-1.52c0.24-0.43,0.57-0.77,1-1c0.43-0.24,0.94-0.35,1.52-0.35c0.58,0,1.08,0.11,1.49,0.34
	c0.41,0.22,0.73,0.55,0.94,0.97c0.22,0.42,0.32,0.93,0.32,1.52c0,0.06,0,0.13-0.01,0.2C23.08,40.51,23.08,40.56,23.08,40.59z
	 M21.51,39.08c-0.12-0.22-0.28-0.38-0.48-0.5c-0.2-0.12-0.44-0.18-0.71-0.18c-0.33,0-0.61,0.07-0.83,0.22
	c-0.23,0.14-0.4,0.35-0.53,0.62c-0.06,0.14-0.11,0.29-0.14,0.46h2.86C21.66,39.46,21.61,39.26,21.51,39.08z M14.88,39.69
	c0-0.41-0.08-0.72-0.25-0.92c-0.17-0.21-0.42-0.31-0.77-0.31c-0.25,0-0.46,0.05-0.65,0.15c-0.18,0.1-0.33,0.24-0.43,0.43
	c-0.1,0.19-0.15,0.41-0.15,0.65v3.36h-1.31v-5.52h1.31v0.85c0.18-0.33,0.4-0.57,0.68-0.73c0.28-0.16,0.6-0.24,0.98-0.24
	c0.62,0,1.1,0.19,1.43,0.57c0.33,0.38,0.49,0.9,0.49,1.55v3.52h-1.33V39.69z M8.81,41.99c-0.39,0.39-0.85,0.7-1.38,0.92
	c-0.53,0.22-1.11,0.33-1.75,0.33c-0.62,0-1.2-0.11-1.73-0.33c-0.53-0.22-0.99-0.53-1.39-0.92c-0.39-0.39-0.7-0.86-0.91-1.39
	c-0.22-0.54-0.32-1.12-0.32-1.74c0-0.63,0.11-1.21,0.32-1.74s0.52-0.99,0.92-1.37c0.4-0.39,0.86-0.69,1.39-0.91
	c0.53-0.22,1.11-0.33,1.72-0.33c0.63,0,1.21,0.11,1.74,0.33c0.53,0.22,0.99,0.52,1.39,0.91c0.4,0.39,0.7,0.85,0.92,1.37
	c0.22,0.53,0.32,1.11,0.32,1.74c0,0.62-0.11,1.2-0.32,1.74C9.51,41.13,9.2,41.59,8.81,41.99z M8.17,37.31
	c-0.24-0.45-0.57-0.81-1-1.06c-0.43-0.26-0.93-0.38-1.49-0.38c-0.55,0-1.04,0.13-1.47,0.38c-0.43,0.26-0.77,0.61-1.01,1.06
	c-0.25,0.45-0.37,0.97-0.37,1.54s0.12,1.09,0.37,1.54c0.25,0.45,0.59,0.8,1.01,1.06c0.43,0.26,0.92,0.39,1.47,0.39
	c0.56,0,1.05-0.13,1.48-0.39c0.43-0.26,0.76-0.61,1.01-1.06c0.24-0.45,0.37-0.96,0.37-1.54S8.41,37.76,8.17,37.31z M185.85,43.05
	h-1.28v-5.52h1.28V43.05z"/>
<path class="st0" d="M209.47,6.99l-0.31-2.83l-1.45,2.26l-1.44-2.26l-0.31,2.83h-1.65l0.97-6.47l2.43,3.55l2.44-3.55l0.97,6.47
	H209.47z M202.51,6.99h-1.55V2.35h-1.57V0.83h4.69v1.52h-1.57V6.99z"/>
<path class="st0" d="M188.98,5.95v16.74h-4.68V5.95h-5.32v-4.6h15.36v4.6H188.98z M180.83,22.69h-12.47V1.35h4.68v16.92h7.79V22.69z
	 M162.58,20.16c-0.93,1.02-2.04,1.8-3.31,2.36c-1.28,0.56-2.67,0.84-4.19,0.84c-1.53,0-2.94-0.28-4.21-0.84
	c-1.28-0.56-2.38-1.35-3.31-2.36c-0.93-1.02-1.65-2.22-2.16-3.6c-0.51-1.38-0.76-2.9-0.76-4.54s0.26-3.15,0.79-4.51
	c0.53-1.36,1.26-2.54,2.2-3.54c0.94-1,2.05-1.76,3.33-2.3c1.28-0.54,2.65-0.81,4.13-0.81c1.5,0,2.88,0.27,4.14,0.81
	c1.27,0.54,2.37,1.31,3.31,2.3c0.94,1,1.67,2.18,2.19,3.54c0.52,1.36,0.78,2.87,0.78,4.51s-0.25,3.16-0.76,4.54
	C164.23,17.94,163.51,19.14,162.58,20.16z M159.87,8.68c-0.44-0.97-1.07-1.72-1.89-2.27c-0.81-0.55-1.78-0.82-2.91-0.82
	c-1.11,0-2.07,0.27-2.9,0.82c-0.82,0.55-1.46,1.31-1.91,2.27c-0.45,0.97-0.68,2.08-0.68,3.34c0,1.26,0.23,2.37,0.68,3.34
	c0.45,0.97,1.09,1.72,1.91,2.27c0.82,0.55,1.79,0.82,2.9,0.82c1.09,0,2.05-0.27,2.87-0.82c0.82-0.55,1.46-1.31,1.91-2.27
	c0.45-0.97,0.68-2.08,0.68-3.34C160.54,10.76,160.32,9.64,159.87,8.68z M123.84,1.35h5.46l4.74,12.75l4.74-12.75h5.49l-10.23,22.69
	L123.84,1.35z M112.44,22.69h-3.1V1.35h3.1h1.39h8.4v4.24h-8.4V9.4h7.84v4.15h-7.84v4.91h8.4v4.24h-8.4H112.44z M101.83,22.69
	l-4.16-7.41h-1.43v7.41h-4.68V1.35h2.94h1.75h2.38c1.66,0,3.05,0.29,4.16,0.88c1.11,0.59,1.95,1.41,2.52,2.45
	c0.57,1.05,0.86,2.26,0.86,3.64c0,1.36-0.29,2.57-0.86,3.61c-0.57,1.05-1.41,1.87-2.52,2.45c-0.16,0.09-0.34,0.15-0.52,0.23
	l5.07,8.07H101.83z M100.94,7c-0.24-0.42-0.59-0.74-1.04-0.96c-0.45-0.22-0.99-0.34-1.62-0.34h-2.05v5.58h2.05
	c0.63,0,1.17-0.11,1.62-0.32c0.45-0.21,0.8-0.53,1.04-0.95c0.24-0.42,0.36-0.92,0.36-1.51C101.3,7.92,101.18,7.42,100.94,7z"/>
<path class="st1" d="M87.16,18.45v4.24h-8.4h-1.39h-3.1V1.35h3.1h1.39h8.4v4.24h-8.4V9.4h7.84v4.15h-7.84v4.91H87.16z M64.03,9.09
	c0.64,0.3,1.41,0.63,2.31,0.98c0.68,0.28,1.32,0.62,1.91,0.99c0.59,0.38,1.11,0.83,1.57,1.36c0.45,0.53,0.81,1.14,1.07,1.83
	c0.26,0.69,0.39,1.48,0.39,2.38c0,1.08-0.2,2.04-0.6,2.88c-0.4,0.84-0.93,1.55-1.61,2.12c-0.67,0.57-1.44,1-2.3,1.3
	c-0.86,0.29-1.74,0.44-2.65,0.44c-1.26,0-2.43-0.25-3.51-0.75c-1.08-0.5-2.02-1.17-2.81-2.03c-0.79-0.85-1.41-1.79-1.86-2.81
	l3.27-2.59c0.39,0.77,0.83,1.44,1.32,2.01c0.49,0.57,1.03,1.01,1.61,1.31c0.58,0.3,1.2,0.46,1.84,0.46c0.68,0,1.25-0.19,1.69-0.56
	c0.44-0.38,0.67-0.89,0.67-1.54c0-0.55-0.13-0.99-0.39-1.33c-0.26-0.34-0.67-0.66-1.25-0.96c-0.57-0.3-1.33-0.65-2.27-1.04
	c-0.46-0.18-0.99-0.44-1.59-0.76c-0.6-0.32-1.17-0.75-1.7-1.27c-0.54-0.52-0.98-1.15-1.33-1.89c-0.35-0.74-0.53-1.64-0.53-2.7
	c0-1.26,0.3-2.35,0.9-3.26c0.6-0.91,1.41-1.61,2.44-2.09c1.03-0.48,2.17-0.72,3.42-0.72c1.29,0,2.42,0.23,3.37,0.7
	c0.95,0.47,1.74,1.06,2.37,1.77c0.63,0.71,1.11,1.43,1.44,2.16l-3.58,2.2c-0.28-0.51-0.6-0.95-0.96-1.33
	c-0.36-0.38-0.76-0.67-1.19-0.88c-0.43-0.21-0.9-0.32-1.4-0.32c-0.67,0-1.17,0.16-1.52,0.47c-0.35,0.32-0.53,0.71-0.53,1.17
	c0,0.49,0.17,0.91,0.51,1.28C62.9,8.45,63.39,8.79,64.03,9.09z M39.71,22.69h-4.49V0.28L48.6,13.36V1.35h4.52v22.41L39.71,10.68
	V22.69z M21.74,22.69h-3.1V1.35h3.1h1.39h8.4v4.24h-8.4V9.4h7.84v4.15h-7.84v4.91h8.4v4.24h-8.4H21.74z M8.4,9.09
	c0.64,0.3,1.41,0.63,2.31,0.98c0.68,0.28,1.32,0.62,1.91,0.99c0.59,0.38,1.11,0.83,1.57,1.36c0.45,0.53,0.81,1.14,1.07,1.83
	c0.26,0.69,0.39,1.48,0.39,2.38c0,1.08-0.2,2.04-0.6,2.88c-0.4,0.84-0.93,1.55-1.61,2.12c-0.67,0.57-1.44,1-2.3,1.3
	c-0.86,0.29-1.74,0.44-2.65,0.44c-1.26,0-2.43-0.25-3.51-0.75c-1.08-0.5-2.02-1.17-2.81-2.03c-0.79-0.85-1.41-1.79-1.86-2.81
	l3.27-2.59c0.39,0.77,0.83,1.44,1.32,2.01c0.49,0.57,1.03,1.01,1.61,1.31c0.58,0.3,1.2,0.46,1.84,0.46c0.68,0,1.25-0.19,1.69-0.56
	c0.44-0.38,0.67-0.89,0.67-1.54c0-0.55-0.13-0.99-0.39-1.33c-0.26-0.34-0.67-0.66-1.25-0.96c-0.57-0.3-1.33-0.65-2.27-1.04
	c-0.46-0.18-0.99-0.44-1.59-0.76c-0.6-0.32-1.17-0.75-1.7-1.27C2.97,11,2.52,10.37,2.17,9.62c-0.35-0.74-0.53-1.64-0.53-2.7
	c0-1.26,0.3-2.35,0.9-3.26c0.6-0.91,1.41-1.61,2.44-2.09C6.01,1.1,7.15,0.86,8.41,0.86c1.29,0,2.42,0.23,3.37,0.7
	c0.95,0.47,1.74,1.06,2.37,1.77c0.63,0.71,1.11,1.43,1.44,2.16l-3.58,2.2c-0.28-0.51-0.6-0.95-0.96-1.33
	C10.7,5.99,10.3,5.69,9.87,5.48c-0.43-0.21-0.9-0.32-1.4-0.32c-0.67,0-1.17,0.16-1.52,0.47C6.59,5.95,6.41,6.34,6.41,6.8
	c0,0.49,0.17,0.91,0.51,1.28C7.27,8.45,7.76,8.79,8.4,9.09z"/>
</svg>
